<?xml version="1.0" standalone="no"?>
<!DOCTYPE svg PUBLIC "-//W3C//DTD SVG 20010904//EN"
 "http://www.w3.org/TR/2001/REC-SVG-20010904/DTD/svg10.dtd">
<svg version="1.0" xmlns="http://www.w3.org/2000/svg"
 width="1200.000000pt" height="1200.000000pt" viewBox="0 0 1200.000000 1200.000000"
 preserveAspectRatio="xMidYMid meet">

<g transform="translate(0.000000,1200.000000) scale(0.100000,-0.100000)"
fill="#000000" stroke="none">
<path d="M965 10849 c-194 -8 -285 -33 -411 -114 -159 -102 -278 -270 -321
-455 -17 -70 -18 -160 -18 -1250 l0 -1175 22 -41 c77 -144 287 -149 370 -7
l28 48 5 1170 5 1170 28 57 c30 62 74 105 140 140 39 21 61 23 287 29 135 4
891 8 1680 8 1365 1 1437 2 1475 20 59 26 101 80 115 144 19 96 -15 177 -97
229 l-38 23 -1560 5 c-858 3 -1627 2 -1710 -1z"/>
<path d="M6860 10822 c-67 -34 -93 -81 -98 -172 -4 -81 24 -140 87 -185 l43
-30 1676 -5 1677 -5 55 -26 c80 -37 125 -81 162 -157 l33 -67 5 -1165 c6
-1300 -1 -1195 75 -1258 90 -74 206 -65 281 21 68 76 65 7 62 1308 l-3 1174
-31 87 c-45 125 -87 191 -185 289 -73 73 -100 93 -190 137 -180 88 -38 82
-1929 82 l-1668 0 -52 -28z"/>
<path d="M1002 6111 c-178 -6 -184 -7 -203 -30 -25 -31 -24 -53 4 -79 l23 -22
1509 0 c829 0 1506 2 1503 5 -2 3 -220 6 -484 6 -263 1 -463 5 -444 8 19 4
-24 6 -96 5 -130 -1 -131 -1 -126 20 5 18 7 18 10 4 4 -20 18 -24 24 -7 3 8
76 13 248 15 392 5 743 14 749 19 2 3 -25 6 -60 6 -35 1 -55 4 -44 7 l20 5
-20 8 c-11 4 99 8 245 9 146 1 254 6 240 10 -14 4 -641 8 -1395 9 -753 1
-1404 3 -1445 5 -41 2 -158 0 -258 -3z"/>
<path d="M3853 6073 c9 -2 23 -2 30 0 6 3 -1 5 -18 5 -16 0 -22 -2 -12 -5z"/>
<path d="M4058 6073 c7 -3 16 -2 19 1 4 3 -2 6 -13 5 -11 0 -14 -3 -6 -6z"/>
<path d="M3880 6060 c-30 -5 -4 -7 80 -7 95 0 113 2 75 7 -59 10 -94 10 -155
0z"/>
<path d="M3773 6053 c9 -2 25 -2 35 0 9 3 1 5 -18 5 -19 0 -27 -2 -17 -5z"/>
<path d="M2813 6013 c9 -2 23 -2 30 0 6 3 -1 5 -18 5 -16 0 -22 -2 -12 -5z"/>
<path d="M3083 6013 c9 -2 23 -2 30 0 6 3 -1 5 -18 5 -16 0 -22 -2 -12 -5z"/>
<path d="M2973 6003 c9 -2 25 -2 35 0 9 3 1 5 -18 5 -19 0 -27 -2 -17 -5z"/>
<path d="M374 4380 c-53 -12 -103 -49 -132 -98 l-27 -47 0 -1185 c0 -1120 1
-1189 18 -1250 72 -254 245 -438 497 -528 l75 -27 1700 -3 c1896 -3 1750 -8
1818 67 88 98 64 251 -50 323 l-38 23 -1675 5 -1675 5 -57 27 c-66 31 -128 91
-160 156 l-23 47 -5 1175 -5 1175 -22 40 c-26 48 -72 80 -133 94 -51 12 -62
12 -106 1z"/>
<path d="M10655 4379 c-51 -12 -110 -59 -135 -110 -20 -38 -20 -65 -25 -1181
-4 -1253 -2 -1199 -64 -1285 -16 -23 -46 -53 -66 -69 -30 -23 -38 -25 -46 -13
-8 11 -9 10 -7 -4 2 -13 -8 -23 -37 -34 -36 -14 -217 -16 -1690 -20 -1164 -2
-1662 -7 -1692 -14 -52 -14 -107 -65 -123 -115 -7 -20 -10 -65 -8 -100 5 -79
42 -137 108 -171 l45 -22 1680 -2 c1582 -2 1684 -1 1750 16 289 73 507 312
565 617 6 30 10 515 10 1205 0 1111 -1 1156 -19 1197 -23 53 -72 91 -131 105
-52 12 -61 12 -115 0z"/>
<path d="M9828 2474 c6 -3 12 -16 12 -30 0 -18 4 -22 17 -17 11 4 12 8 5 11
-32 10 -5 22 53 22 53 0 66 -3 75 -19 15 -29 14 -30 -37 -34 l-48 -4 50 -1
c122 -1 125 -2 125 -17 0 -19 9 -19 51 0 l34 14 -42 1 c-24 0 -43 5 -43 10 0
6 -11 8 -25 4 -31 -8 -59 15 -39 34 15 14 102 1 166 -25 22 -9 41 -13 44 -11
2 3 -33 18 -78 33 -70 24 -103 29 -208 31 -69 2 -119 1 -112 -2z"/>
<path d="M9733 2458 c-52 -17 -38 -28 14 -12 25 8 49 16 51 19 9 8 -31 4 -65
-7z"/>
<path d="M9635 2425 c-16 -8 -23 -14 -15 -14 8 0 26 6 40 14 32 18 15 18 -25
0z"/>
<path d="M10033 2433 c9 -2 25 -2 35 0 9 3 1 5 -18 5 -19 0 -27 -2 -17 -5z"/>
<path d="M10242 2392 c4 -26 35 -44 61 -36 19 6 20 5 9 -9 -8 -9 -20 -13 -27
-11 -8 3 -22 1 -32 -5 -15 -10 -14 -11 12 -9 29 3 30 2 33 -44 2 -27 8 -48 13
-48 6 0 9 21 8 52 -3 55 9 70 37 48 8 -7 17 -11 19 -8 5 5 -85 66 -118 80 -14
6 -17 3 -15 -10z m43 -22 c3 -5 2 -10 -4 -10 -5 0 -13 5 -16 10 -3 6 -2 10 4
10 5 0 13 -4 16 -10z"/>
<path d="M9565 2390 c-3 -5 3 -10 14 -10 12 0 21 -6 21 -13 0 -7 9 -18 20 -25
29 -18 24 0 -8 31 -31 30 -38 32 -47 17z"/>
<path d="M9695 2330 c39 -39 71 -66 73 -60 2 6 -7 19 -20 30 -12 11 -18 19
-11 20 6 0 25 -12 42 -26 17 -14 31 -21 31 -14 0 19 -27 40 -57 43 -15 2 -46
20 -68 40 -70 64 -62 40 10 -33z"/>
<path d="M9670 2390 c0 -5 5 -10 10 -10 6 0 10 5 10 10 0 6 -4 10 -10 10 -5 0
-10 -4 -10 -10z"/>
<path d="M9700 2392 c0 -12 34 -42 48 -42 7 0 12 5 12 10 0 6 -7 10 -15 10 -8
0 -15 7 -15 15 0 8 -7 15 -15 15 -8 0 -15 -4 -15 -8z"/>
<path d="M9785 2385 c50 -18 55 -18 55 0 0 11 -12 15 -47 15 l-48 -1 40 -14z"/>
<path d="M9570 2360 c0 -5 5 -10 10 -10 6 0 10 5 10 10 0 6 -4 10 -10 10 -5 0
-10 -4 -10 -10z"/>
<path d="M9593 2333 c4 -3 7 -11 7 -18 0 -9 15 -15 43 -17 38 -3 42 -5 39 -28
-1 -19 0 -22 8 -10 8 13 11 12 24 -5 8 -11 17 -18 19 -15 11 11 -66 82 -92 85
-14 1 -33 4 -41 7 -8 3 -12 3 -7 1z"/>
<path d="M9817 2323 c-2 -5 2 -21 9 -38 l13 -30 -2 37 c-2 35 -10 48 -20 31z"/>
<path d="M10080 2280 c0 -27 5 -50 10 -50 6 0 10 23 10 50 0 28 -4 50 -10 50
-5 0 -10 -22 -10 -50z"/>
<path d="M9586 2280 c7 -64 23 -120 34 -120 6 0 6 10 0 26 -15 38 -12 50 6 28
14 -17 15 -17 10 -1 -3 10 -6 21 -6 23 0 2 -6 4 -14 4 -9 0 -19 17 -25 43
l-11 42 6 -45z"/>
<path d="M10404 2283 c2 -10 6 -17 10 -16 15 3 16 11 2 22 -12 10 -14 9 -12
-6z"/>
<path d="M10437 2257 c-3 -8 3 -14 15 -14 16 -2 17 1 8 13 -15 17 -17 17 -23
1z"/>
<path d="M9780 2252 c0 -4 16 -24 36 -43 20 -18 32 -25 27 -15 -6 10 -9 28 -6
40 3 20 3 20 -5 1 -9 -19 -9 -19 -23 3 -14 22 -29 29 -29 14z"/>
<path d="M9668 2217 c-3 -19 -2 -25 4 -19 6 6 8 18 6 28 -3 14 -5 12 -10 -9z"/>
<path d="M9765 2190 c-10 -16 4 -30 30 -30 24 0 24 1 8 20 -19 22 -29 25 -38
10z m25 -10 c0 -5 -4 -10 -10 -10 -5 0 -10 5 -10 10 0 6 5 10 10 10 6 0 10 -4
10 -10z"/>
<path d="M9641 2174 c0 -11 3 -14 6 -6 3 7 2 16 -1 19 -3 4 -6 -2 -5 -13z"/>
<path d="M10080 2175 c0 -12 -14 -15 -64 -15 -36 0 -67 -4 -70 -9 -3 -4 5 -18
18 -30 16 -16 26 -19 31 -11 4 6 -1 18 -11 25 -17 13 -16 14 16 10 19 -2 45
-6 58 -10 16 -6 22 -3 22 9 0 12 10 16 43 16 l42 1 -34 14 c-42 19 -51 19 -51
0z"/>
<path d="M10265 2175 l-30 -14 43 -1 c30 0 42 -4 42 -15 0 -18 11 -19 45 -3
21 9 28 9 35 -2 7 -11 15 -10 46 3 l39 16 -82 0 c-67 1 -83 4 -83 16 0 18 -15
18 -55 0z"/>
<path d="M9870 2163 c0 -12 214 -223 225 -223 6 0 3 5 -6 10 -13 8 -16 23 -13
75 2 36 -1 65 -5 65 -5 0 -7 -9 -4 -20 3 -11 0 -20 -6 -20 -6 0 -11 7 -11 15
0 8 -4 15 -10 15 -14 0 -6 -43 8 -48 17 -5 15 -22 -3 -22 -8 0 -15 5 -15 10 0
6 -7 10 -16 10 -10 0 -13 6 -9 19 6 18 -20 49 -32 38 -3 -4 2 -9 11 -13 9 -3
16 -11 16 -17 0 -15 -38 22 -45 44 -4 11 -12 19 -18 19 -7 0 -25 11 -40 25
-15 14 -27 22 -27 18z m200 -173 c0 -5 -2 -10 -4 -10 -3 0 -8 5 -11 10 -3 6
-1 10 4 10 6 0 11 -4 11 -10z"/>
<path d="M9626 2130 c4 -14 17 -47 30 -75 13 -27 21 -39 17 -25 -4 14 -7 33
-7 42 0 9 -2 15 -5 13 -2 -3 -13 12 -23 32 -10 23 -15 28 -12 13z"/>
<path d="M9847 2113 c-8 -15 -8 -123 0 -123 5 0 7 20 5 45 -3 28 0 45 7 45 6
0 14 1 19 3 4 1 10 -18 13 -43 l6 -45 1 46 c2 33 -3 50 -16 62 -20 19 -29 21
-35 10z m23 -13 c0 -5 -4 -10 -10 -10 -5 0 -10 5 -10 10 0 6 5 10 10 10 6 0
10 -4 10 -10z"/>
<path d="M10320 2040 c0 -27 5 -50 10 -50 6 0 10 23 10 50 0 28 -4 50 -10 50
-5 0 -10 -22 -10 -50z"/>
<path d="M9923 2035 c0 -28 14 -39 42 -33 13 2 11 9 -13 31 l-29 28 0 -26z
m27 -15 c0 -5 -4 -10 -10 -10 -5 0 -10 5 -10 10 0 6 5 10 10 10 6 0 10 -4 10
-10z"/>
<path d="M10440 1973 c0 -22 2 -25 10 -13 13 20 13 40 0 40 -5 0 -10 -12 -10
-27z"/>
<path d="M9690 1975 c0 -10 72 -120 81 -123 5 -2 9 -9 9 -16 0 -7 9 -21 19
-30 15 -13 20 -14 25 -4 3 7 4 4 1 -8 -3 -12 1 -26 9 -33 12 -10 13 -7 7 21
-4 18 -6 47 -6 63 4 79 2 75 48 75 l42 1 -34 14 c-45 20 -48 19 -56 -15 -4
-17 -13 -30 -22 -30 -9 0 -13 6 -10 14 4 9 -3 13 -23 12 -15 -1 -26 -4 -23 -8
2 -5 0 -8 -6 -8 -5 0 -18 18 -28 40 -15 34 -33 52 -33 35z m108 -94 c24 -21
28 -31 10 -31 -14 0 -48 30 -48 42 0 13 13 9 38 -11z m20 -58 c-6 -7 -12 -13
-13 -13 -2 0 -5 6 -8 13 -3 7 3 13 14 13 13 0 15 -3 7 -13z"/>
<path d="M9746 1967 c3 -10 9 -15 12 -12 3 3 0 11 -7 18 -10 9 -11 8 -5 -6z"/>
<path d="M10003 1955 c0 -28 14 -39 42 -33 13 2 11 9 -13 31 l-29 28 0 -26z
m27 -15 c0 -5 -4 -10 -10 -10 -5 0 -10 5 -10 10 0 6 5 10 10 10 6 0 10 -4 10
-10z"/>
<path d="M10320 1935 c0 -11 -13 -15 -52 -16 -46 -1 -49 -2 -23 -9 17 -5 40
-12 53 -15 17 -6 22 -3 22 10 0 14 8 16 48 13 43 -3 48 -1 44 15 -4 14 -7 15
-13 6 -6 -10 -13 -10 -34 -1 -34 16 -45 15 -45 -3z"/>
<path d="M10154 1871 c104 -109 136 -141 142 -141 3 0 2 5 -2 12 -5 8 -2 9 10
5 11 -4 15 -3 11 4 -4 5 -11 9 -17 7 -14 -5 -95 73 -103 100 -3 12 -12 22 -19
22 -8 0 -20 8 -27 17 -12 15 -12 16 4 10 10 -4 16 -3 13 2 -3 5 -19 11 -36 13
-29 4 -29 4 24 -51z"/>
<path d="M10186 1911 c-3 -4 5 -18 18 -30 30 -28 45 -10 16 19 -22 22 -26 24
-34 11z"/>
<path d="M10083 1873 c2 -23 7 -28 30 -28 l27 -1 -27 28 c-15 15 -28 28 -29
28 -2 0 -2 -12 -1 -27z m27 -13 c0 -5 -4 -10 -10 -10 -5 0 -10 5 -10 10 0 6 5
10 10 10 6 0 10 -4 10 -10z"/>
<path d="M10225 1830 c10 -11 23 -20 28 -20 6 0 19 -8 29 -17 19 -17 19 -16
13 9 -5 19 -2 29 12 37 10 6 13 11 6 11 -6 0 -18 -6 -26 -14 -12 -13 -18 -13
-42 0 -37 19 -41 18 -20 -6z"/>
<path d="M10415 1829 c-4 -6 -5 -12 -2 -15 2 -3 7 2 10 11 7 17 1 20 -8 4z"/>
<path d="M10312 1800 c0 -19 2 -27 5 -17 2 9 2 25 0 35 -3 9 -5 1 -5 -18z"/>
<path d="M10163 1781 c-1 -40 -1 -40 40 -43 39 -3 42 -5 41 -30 -1 -15 2 -25
7 -22 4 2 5 12 2 22 -5 14 -3 15 8 5 30 -29 29 -10 -2 22 -28 28 -40 33 -64
30 -21 -4 -26 -3 -15 4 8 5 18 7 22 5 17 -11 7 10 -14 27 -11 11 -21 19 -22
19 -1 0 -2 -18 -3 -39z"/>
<path d="M9861 1749 c-1 -8 13 -28 29 -44 23 -22 30 -25 30 -12 0 9 -3 16 -7
16 -21 -3 -26 2 -13 12 13 9 12 10 -3 5 -12 -4 -21 1 -27 17 -5 14 -9 16 -9 6z"/>
<path d="M10080 1720 c0 -22 5 -40 10 -40 6 0 10 18 10 40 0 22 -4 40 -10 40
-5 0 -10 -18 -10 -40z"/>
</g>
</svg>
