<svg xmlns="http://www.w3.org/2000/svg" xmlns:xlink="http://www.w3.org/1999/xlink" viewBox="0 0 22.99 20.01"><defs><style>.cls-1{fill:url(#linear-gradient);}.cls-2{fill:url(#linear-gradient-2);}.cls-3{fill:url(#linear-gradient-3);}.cls-4{fill:#f8f8f8;}.cls-5{fill:url(#linear-gradient-4);}.cls-6{fill:url(#linear-gradient-5);}.cls-7{fill:url(#linear-gradient-6);}.cls-8{fill:url(#linear-gradient-7);}.cls-9{fill:url(#linear-gradient-8);}</style><linearGradient id="linear-gradient" x1="10.55" y1="16.3" x2="11.87" y2="16.3" gradientTransform="translate(-4.68 -2.42)" gradientUnits="userSpaceOnUse"><stop offset="0" stop-color="#096"/><stop offset="1" stop-color="#096"/></linearGradient><linearGradient id="linear-gradient-2" x1="10.55" y1="14.73" x2="13.07" y2="14.73" gradientTransform="translate(-9.14 1.8) rotate(-17.86)" xlink:href="#linear-gradient"/><linearGradient id="linear-gradient-3" x1="10.55" y1="13.16" x2="11.87" y2="13.16" gradientTransform="translate(-5.64 -2.27)" xlink:href="#linear-gradient"/><linearGradient id="linear-gradient-4" x1="7.01" y1="13.31" x2="27.77" y2="13.31" gradientTransform="translate(-9.14 1.8) rotate(-17.86)" gradientUnits="userSpaceOnUse"><stop offset="0" stop-color="#38d9a3"/><stop offset="0.55" stop-color="#38d9a3"/><stop offset="1" stop-color="#38d9a3"/></linearGradient><linearGradient id="linear-gradient-5" x1="2.56" y1="16.83" x2="3.88" y2="16.83" gradientTransform="translate(1.06 -0.58)" xlink:href="#linear-gradient"/><linearGradient id="linear-gradient-6" x1="2.56" y1="15.26" x2="5.08" y2="15.26" gradientTransform="translate(0.88 -0.54) rotate(-0.63)" xlink:href="#linear-gradient"/><linearGradient id="linear-gradient-7" x1="2.56" y1="13.69" x2="3.88" y2="13.69" gradientTransform="translate(1.03 -0.58)" xlink:href="#linear-gradient"/><linearGradient id="linear-gradient-8" x1="-0.98" y1="13.84" x2="19.79" y2="13.84" gradientTransform="translate(0.88 -0.54) rotate(-0.63)" xlink:href="#linear-gradient"/></defs><g id="Layer_2" data-name="Layer 2"><g id="Layer_12" data-name="Layer 12"><rect class="cls-1" x="5.87" y="13.63" width="1.32" height="0.51" transform="translate(-3.94 2.67) rotate(-17.86)"/><polygon class="cls-2" points="5.26 12.1 5.57 13.08 7.21 12.55 7.97 12.3 7.66 11.32 6.9 11.57 5.26 12.1"/><rect class="cls-3" x="4.9" y="10.64" width="1.32" height="0.51" transform="translate(-3.07 2.23) rotate(-17.86)"/><rect class="cls-4" x="1.55" y="3.85" width="19.92" height="10.67" transform="translate(-2.26 3.97) rotate(-17.86)"/><path class="cls-5" d="M17.67.08,1.2,5.39A1.74,1.74,0,0,0,.08,7.57l.16.48.17.55.65,2,2.08,6.46a1.76,1.76,0,0,0,.86,1,1.73,1.73,0,0,0,1.32.11h0l16.47-5.3a1.74,1.74,0,0,0,1.12-2.18L20.83,4.24l-.65-2L20,1.68l-.15-.48A1.74,1.74,0,0,0,17.67.08ZM8.86,12.44A.41.41,0,0,1,8.6,13l-.76.24.28.86a.41.41,0,0,1-.26.51l-2,.65A.41.41,0,0,1,5.33,15l-.4-1.24L4.37,12,4,10.72a.41.41,0,0,1,.26-.51l2-.65a.41.41,0,0,1,.51.26l.27.86.76-.24a.4.4,0,0,1,.51.26Zm11.19-1.81L13,12.91a.41.41,0,0,1-.51-.26.4.4,0,0,1,.26-.5l7.08-2.29a.4.4,0,0,1,.24.77ZM12,11a.41.41,0,0,1,.26-.5L15,9.62a.4.4,0,1,1,.25.76l-2.83.91A.4.4,0,0,1,12,11ZM19,7.4,11.94,9.68a.4.4,0,1,1-.25-.77l7.08-2.28A.4.4,0,0,1,19,7.4Zm1.32-3-18.77,6-.65-2,18.77-6Z"/><rect class="cls-6" x="3.62" y="16" width="1.32" height="0.51" transform="translate(-0.18 0.05) rotate(-0.63)"/><polygon class="cls-7" points="3.6 14.18 3.61 15.21 5.33 15.19 6.13 15.18 6.12 14.15 5.32 14.16 3.6 14.18"/><rect class="cls-8" x="3.59" y="12.86" width="1.32" height="0.51" transform="matrix(1, -0.01, 0.01, 1, -0.14, 0.05)"/><rect class="cls-4" x="0.48" y="7.92" width="19.92" height="10.67" transform="translate(-0.14 0.11) rotate(-0.63)"/><path class="cls-9" d="M19,6.38l-17.3.19A1.74,1.74,0,0,0,0,8.32V9.4l0,2.11L.11,18.3a1.72,1.72,0,0,0,.52,1.22A1.7,1.7,0,0,0,1.86,20h0l17.3-.19a1.73,1.73,0,0,0,1.71-1.75l-.07-6.78,0-2.12V8.09A1.73,1.73,0,0,0,19,6.38ZM6.94,15.57a.4.4,0,0,1-.4.41h-.8v.9a.39.39,0,0,1-.39.41l-2.13,0a.39.39,0,0,1-.4-.39l0-1.31,0-1.83V12.48a.42.42,0,0,1,.4-.41l2.12,0a.42.42,0,0,1,.41.4v.9h.8a.39.39,0,0,1,.4.39Zm11.23,1.59-7.44.08a.4.4,0,0,1,0-.8l7.43-.08a.4.4,0,0,1,0,.8Zm-7.86-2a.41.41,0,0,1,.4-.41l3,0a.41.41,0,0,1,.41.4.4.4,0,0,1-.4.4l-3,0A.39.39,0,0,1,10.31,15.15Zm7.82-1.38-7.43.08a.41.41,0,0,1-.41-.4.42.42,0,0,1,.4-.41L18.12,13a.41.41,0,0,1,0,.81Zm2.14-2.48L.56,11.51l0-2.11,19.71-.22Z"/></g></g></svg>