<svg xmlns="http://www.w3.org/2000/svg" viewBox="0 0 148.57 29.6"><defs><style>.cls-1{fill:#ba7333;}.cls-2{fill:#fff;opacity:0.25;}</style></defs><g id="Layer_2" data-name="Layer 2"><g id="Layer_12" data-name="Layer 12"><path class="cls-1" d="M0,27.32v-25a2.29,2.29,0,0,1,.17-.87A2.2,2.2,0,0,1,.67.67a2.2,2.2,0,0,1,.74-.5A2.29,2.29,0,0,1,2.28,0h144a2.36,2.36,0,0,1,.87.17,2.2,2.2,0,0,1,.74.5,2.36,2.36,0,0,1,.5.74,2.29,2.29,0,0,1,.17.87v25a2.32,2.32,0,0,1-.17.87,2.36,2.36,0,0,1-.5.74,2.2,2.2,0,0,1-.74.5,2.36,2.36,0,0,1-.87.17H2.28a2.29,2.29,0,0,1-.87-.17,2.2,2.2,0,0,1-.74-.5,2.2,2.2,0,0,1-.5-.74A2.32,2.32,0,0,1,0,27.32Z"/><path class="cls-2" d="M18.71,17.2a1.42,1.42,0,0,0-1.31.16,1.38,1.38,0,0,0-.6.85c-1.24.13-2.53.24-3.88.31a1.72,1.72,0,0,0-.32,0,28.2,28.2,0,0,1-3.35-.06,1.41,1.41,0,0,0-.48-.71,1.49,1.49,0,0,0-.68-.33A40.46,40.46,0,0,1,6.87,9.79a20.13,20.13,0,0,1,.16-4,1.78,1.78,0,0,0,.6-.38,1.63,1.63,0,0,0,.43-.54H9a23.61,23.61,0,0,1,4.11.44A53.48,53.48,0,0,1,24.31,9.1l.3.14a1.55,1.55,0,0,0,0,.52,2.28,2.28,0,0,0,.15.36A79.75,79.75,0,0,1,18.71,17.2Zm-5.12,5c-.92.81-1.78,1.49-2.55,2.05a1.09,1.09,0,0,0-.36-.16,1,1,0,0,0-.34-.08c-.37-.86-.64-1.61-.83-2.1S9,20.68,8.72,19.64a.89.89,0,0,0,.39-.26.86.86,0,0,0,.18-.45c1.08.09,2.23.14,3.45.13a39.45,39.45,0,0,0,4.08-.25.77.77,0,0,0,.1.23l0,0Q15.16,20.91,13.59,22.24ZM25.13,10.47a.88.88,0,0,0,.73.14.86.86,0,0,0,.56-.49,24.21,24.21,0,0,1,3.31,2c0-.12-.05-.23-.06-.34a23.24,23.24,0,0,0-3.15-2.07,1,1,0,0,0,0-.47,1.33,1.33,0,0,0-.26-.5l.17-.28a22.79,22.79,0,0,0,1-2,2,2,0,0,0-.16-.24,22.21,22.21,0,0,1-1.34,2.31.83.83,0,0,0-.65-.11.9.9,0,0,0-.52.42A49.7,49.7,0,0,0,14.42,5.26a25,25,0,0,0-5.56-.69H8.18a.57.57,0,0,0-.06-.39l.54-.38A21.66,21.66,0,0,1,17,.24l-.29,0a20.19,20.19,0,0,0-8.17,3.3c-.23.16-.46.32-.68.49a.63.63,0,0,0-.45,0,8.36,8.36,0,0,1,.77-1.82l-.4.25a12.93,12.93,0,0,0-.68,1.68,1.58,1.58,0,0,0-.46.3,2.7,2.7,0,0,0-.28.31A14.75,14.75,0,0,0,4.76,5c-.09.13-.2.25-.29.37A9.52,9.52,0,0,1,6.22,5a.66.66,0,0,0-.07.38A25.67,25.67,0,0,0,1.67,10.7c0,.22-.11.42-.16.63A26.59,26.59,0,0,1,6.28,5.77a.56.56,0,0,0,.41.13,21.42,21.42,0,0,0-.12,6.6,36.48,36.48,0,0,0,.91,5,.81.81,0,0,0-.36.25.94.94,0,0,0-.19.5A24.13,24.13,0,0,1,1.31,16.7l.06.43A24,24,0,0,0,7,18.66a1.3,1.3,0,0,0,.47.68,1.38,1.38,0,0,0,.71.34c.43,1.25.92,2.43,1.45,3.81a5.36,5.36,0,0,0,.24.6.65.65,0,0,0-.45.4.77.77,0,0,0,.28.75c-.95.62-1.68,1-2.17,1.28a1.81,1.81,0,0,1,.27.18A14.18,14.18,0,0,0,10,25.44a.72.72,0,0,0,.22.1,1.46,1.46,0,0,0,.4.07A16.68,16.68,0,0,0,12.8,28.7c.2.05.4.07.61.11a12,12,0,0,1-2.36-3.25.59.59,0,0,0,.43-.39.64.64,0,0,0-.17-.65c.77-.57,1.58-1.22,2.38-1.92,1.23-1,2.45-2.13,3.62-3.24a1.34,1.34,0,0,0,1.34-.13,1.56,1.56,0,0,0,.58-.78c.3-.05.61-.1.93-.17a31.45,31.45,0,0,0,9.78-3.4c0-.11,0-.22,0-.34a34.31,34.31,0,0,1-10.7,3.33,1,1,0,0,0-.11-.29l.24-.24A48.4,48.4,0,0,0,25.13,10.47Z"/></g></g></svg>