<svg xmlns="http://www.w3.org/2000/svg" xmlns:xlink="http://www.w3.org/1999/xlink" viewBox="0 0 22 22"><defs><style>.cls-1{fill:url(#linear-gradient);}.cls-2,.cls-7{fill:#fff;}.cls-2,.cls-3{fill-rule:evenodd;}.cls-3{fill:#f3a328;}.cls-4{fill:#ec1b2e;}.cls-5{fill:#fbb031;}.cls-6{fill:#003473;}</style><linearGradient id="linear-gradient" y1="11" x2="22" y2="11" gradientUnits="userSpaceOnUse"><stop offset="0" stop-color="#35be51"/><stop offset="1" stop-color="#35be51"/></linearGradient></defs><g id="Layer_2" data-name="Layer 2"><g id="Layer_12" data-name="Layer 12"><rect class="cls-1" width="22" height="22" rx="1.68"/><path class="cls-2" d="M17.1,3.3h-.9a.58.58,0,0,0-.61.36l-1.74,4h1.23L15.32,7h1.5c0,.15.14.65.14.65h1.09L17.1,3.3ZM15.66,6.13l.47-1.23s.09-.25.15-.42l.08.38s.22,1,.27,1.27ZM14.1,3.4a2.92,2.92,0,0,0-1-.18c-1.16,0-2,.59-2,1.45,0,.63.59,1,1,1.19s.61.35.61.54-.37.43-.7.43A2.51,2.51,0,0,1,10.9,6.6l-.15-.07-.16,1a3.54,3.54,0,0,0,1.3.24c1.23,0,2-.59,2-1.5,0-.5-.31-.88-1-1.19-.41-.21-.66-.34-.66-.55s.21-.38.67-.38a2.25,2.25,0,0,1,.88.17l.1,0,.16-.95ZM8.69,7.68,9.42,3.3h1.17L9.86,7.68ZM7.7,3.3l-1.14,3-.12-.61A3.42,3.42,0,0,0,4.81,3.84L5.86,7.68H7.1L8.94,3.3Z"/><path class="cls-3" d="M5.5,3.3H3.61l0,.09A3.91,3.91,0,0,1,6.44,5.68L6,3.66A.49.49,0,0,0,5.5,3.3Z"/><path class="cls-4" d="M12.42,15.13A4.33,4.33,0,1,1,8.09,10.8a4.33,4.33,0,0,1,4.33,4.33Z"/><path class="cls-5" d="M13.91,10.8A4.35,4.35,0,0,0,11,11.92a4.78,4.78,0,0,0-.44.46h.88a4.84,4.84,0,0,1,.33.46H10.23c-.09.15-.17.3-.25.46h2a3.66,3.66,0,0,1,.18.46H9.8c-.05.15-.09.3-.13.45h2.66a4.7,4.7,0,0,1,.09.92,4.2,4.2,0,0,1-.22,1.38H9.8A3.66,3.66,0,0,0,10,17h2c-.08.15-.16.31-.25.46H10.23a3.72,3.72,0,0,0,.33.45h.88a3.84,3.84,0,0,1-.44.46,4.33,4.33,0,1,0,2.91-7.54Zm3.87,6.74h0v0h0v0Zm0,.07h0v-.12h.09a0,0,0,0,1,0,0s0,0,0,0l0,.06h0l0-.05h0v.05Zm0,0a.11.11,0,0,0,.11-.1.11.11,0,0,0-.11-.11.1.1,0,0,0-.1.11.1.1,0,0,0,.1.1Zm-.14-.1a.14.14,0,0,1,.28,0,.14.14,0,0,1-.28,0Z"/><path class="cls-6" d="M10.68,15.3s.05-.32-.21-.32-.26.12-.3.32ZM11,16.36a1.59,1.59,0,0,1-.48.07.71.71,0,0,1-.8-.79c0-.61.35-1.06.82-1.06a.6.6,0,0,1,.63.64,2,2,0,0,1-.06.44h-.93c0,.26.14.37.41.37a1.16,1.16,0,0,0,.48-.11l-.07.44Zm-1.44,0a1.08,1.08,0,0,1-.34.05c-.24,0-.37-.13-.37-.39,0-.08,0-.29.07-.48s.2-1.21.2-1.21h.47l-.06.27h.29l-.07.43H9.42c-.05.33-.13.76-.13.81s.05.14.16.14l.13,0-.07.4Zm-2.09,0H7v-.18a.61.61,0,0,1-.49.21A.43.43,0,0,1,6.12,16c0-.44.3-.69.83-.69h.19a.74.74,0,0,0,0-.12c0-.11-.09-.16-.31-.16a1.72,1.72,0,0,0-.49.08s.06-.4.06-.4A1.84,1.84,0,0,1,7,14.58c.41,0,.62.18.62.52a1.77,1.77,0,0,1,0,.35c0,.26-.13.82-.14.95Zm-.34-.79H7c-.27,0-.4.09-.4.27a.16.16,0,0,0,.16.18c.19,0,.33-.18.34-.44Zm-1.16.79H5.45l.27-1.69-.6,1.69H4.8l0-1.68L4.48,16.4H4l.36-2.19h.68l0,1.22.41-1.22h.76L5.92,16.4Zm7.31-1.78a.93.93,0,0,1,.42.12l.08-.48a1.53,1.53,0,0,0-.52-.18.91.91,0,0,0-.76.41c-.28-.09-.39.09-.53.28l-.12,0a1.1,1.1,0,0,0,0-.18h-.44c-.06.55-.16,1.11-.24,1.66l0,.12h.47c.08-.51.12-.83.14-1.06l.18-.09c0-.1.11-.14.28-.13a2.09,2.09,0,0,0,0,.36c0,.59.32.95.83.95a1.31,1.31,0,0,0,.41-.06l.08-.5a1,1,0,0,1-.4.11c-.27,0-.43-.2-.43-.53,0-.49.24-.83.59-.83Zm1.6,1.78h-.39v-.18a.61.61,0,0,1-.49.21.43.43,0,0,1-.43-.48c0-.44.3-.69.82-.69h.19a.3.3,0,0,0,0-.12c0-.11-.08-.16-.3-.16a1.89,1.89,0,0,0-.5.08s.07-.4.07-.4a1.8,1.8,0,0,1,.56-.09c.41,0,.62.18.62.52a3.12,3.12,0,0,1,0,.35c0,.26-.13.82-.14.95Zm-.34-.79h-.11c-.26,0-.4.09-.4.27a.17.17,0,0,0,.17.18c.19,0,.33-.18.34-.44Zm2.14.38c-.16,0-.24-.12-.24-.35s.15-.6.36-.6.25.12.25.35-.15.6-.37.6Zm.58-1.78-.1.63a.59.59,0,0,0-.45-.29.72.72,0,0,0-.59.44,3.43,3.43,0,0,1-.4-.11h0c0-.14,0-.23,0-.26h-.44c-.05.55-.16,1.11-.24,1.66l0,.12h.47l.15-1c.16-.15.24-.28.4-.27a1.62,1.62,0,0,0-.11.58c0,.45.22.74.56.74a.58.58,0,0,0,.44-.19l0,.16h.45l.36-2.19Zm-9.5,1a.51.51,0,0,0,.35.5c.19.09.22.12.22.2S8.2,16,8,16A1.28,1.28,0,0,1,7.59,16s-.06.39-.06.41a1.91,1.91,0,0,0,.49.05c.49,0,.72-.19.72-.59a.48.48,0,0,0-.33-.5c-.2-.09-.22-.11-.22-.2s.08-.14.23-.14l.34,0,.07-.41a3.19,3.19,0,0,0-.42,0c-.52,0-.71.27-.7.6Z"/><path class="cls-7" d="M16.76,15.86c.22,0,.37-.25.37-.6s-.08-.35-.24-.35-.37.25-.37.6.08.35.24.35Zm.7.41H17l0-.16a.57.57,0,0,1-.43.19c-.34,0-.57-.29-.57-.74s.35-1.09.77-1.09a.53.53,0,0,1,.45.24l.1-.63h.46l-.35,2.19Zm-2.07-1.78c-.06.55-.16,1.11-.25,1.66l0,.12h.47c.17-1.09.21-1.3.48-1.28a2.09,2.09,0,0,1,.17-.52c-.19,0-.3.07-.45.29a.83.83,0,0,0,0-.27ZM15,16.27h-.39v-.18a.61.61,0,0,1-.5.21.44.44,0,0,1-.43-.49c0-.43.31-.68.83-.68h.19a.74.74,0,0,0,0-.12c0-.11-.08-.16-.3-.16a1.89,1.89,0,0,0-.5.08s.06-.4.06-.4a1.85,1.85,0,0,1,.57-.09c.4,0,.62.18.61.52a1.64,1.64,0,0,1,0,.35c0,.26-.13.82-.14.95Zm-.35-.79h-.1c-.27,0-.4.09-.4.27a.16.16,0,0,0,.17.18c.19,0,.33-.18.33-.44Zm-.75-1.35-.08.48a1,1,0,0,0-.42-.12c-.35,0-.6.34-.6.83,0,.33.17.53.44.53a1,1,0,0,0,.4-.11l-.08.5a1.41,1.41,0,0,1-.42.06c-.5,0-.82-.36-.82-1,0-.78.44-1.33,1.06-1.33a2,2,0,0,1,.52.11Zm-2.35.36c-.06.55-.17,1.11-.25,1.66l0,.12h.47c.17-1.09.21-1.3.47-1.28a2.52,2.52,0,0,1,.18-.52c-.19,0-.3.07-.45.29a1.24,1.24,0,0,0,0-.27Zm-.7.68s0-.32-.22-.32-.25.12-.3.32Zm.26,1.06a1.55,1.55,0,0,1-.48.07.7.7,0,0,1-.79-.79c0-.62.34-1.06.81-1.06a.6.6,0,0,1,.64.64,2,2,0,0,1-.06.44h-.93c0,.26.13.37.4.37a1.24,1.24,0,0,0,.49-.11l-.08.44Zm-1.43,0a.87.87,0,0,1-.34.06.34.34,0,0,1-.37-.39A4.69,4.69,0,0,1,9,15.43c0-.16.21-1.22.21-1.22h.46l-.05.28h.24l-.06.42H9.56c-.06.34-.14.77-.14.82s.05.14.16.14l.13,0-.06.39ZM7.84,15.05a.52.52,0,0,0,.36.5c.19.09.22.12.22.2s-.09.16-.27.16a1.28,1.28,0,0,1-.42-.07s-.06.39-.07.41a2.66,2.66,0,0,0,.49.05c.5,0,.73-.19.73-.59a.5.5,0,0,0-.33-.5c-.2-.09-.22-.11-.22-.2s.07-.14.23-.14l.33,0L9,14.48a3,3,0,0,0-.41,0c-.53,0-.71.27-.71.6Zm-.28,1.22H7.17v-.18a.61.61,0,0,1-.49.21.44.44,0,0,1-.43-.49c0-.43.3-.68.82-.68h.19a.3.3,0,0,0,0-.12c0-.11-.08-.16-.3-.16a1.89,1.89,0,0,0-.5.08s.07-.4.07-.4a1.8,1.8,0,0,1,.56-.09c.4,0,.62.18.62.52a3.12,3.12,0,0,1,0,.35c0,.26-.13.82-.14.95Zm-.34-.79H7.11c-.27,0-.4.09-.4.27a.17.17,0,0,0,.17.18c.19,0,.33-.18.34-.44Zm-1.16.79H5.59l.27-1.69-.6,1.69H4.94l0-1.68-.29,1.68H4.17l.37-2.2h.68l0,1.37.45-1.37h.73l-.36,2.2Z"/><path class="cls-7" d="M17.78,16.12h0v0h0v0Zm0,.07h0v-.12h.09s0,0,0,0,0,0,0,0l0,.05h0l0-.05h0v.05Zm0,0a.11.11,0,0,0,.11-.11.1.1,0,0,0-.11-.1.09.09,0,0,0-.1.1.1.1,0,0,0,.1.11Zm-.14-.11a.14.14,0,1,1,.14.14.14.14,0,0,1-.14-.14Z"/></g></g></svg>