<svg xmlns="http://www.w3.org/2000/svg" xmlns:xlink="http://www.w3.org/1999/xlink" width="70" height="67.944" viewBox="0 0 70 67.944">
  <defs>
    <filter id="Path_111" x="11" y="0" width="48.86" height="67.944" filterUnits="userSpaceOnUse">
      <feOffset dy="3" input="SourceAlpha"/>
      <feGaussianBlur stdDeviation="3" result="blur"/>
      <feFlood flood-opacity="0.102"/>
      <feComposite operator="in" in2="blur"/>
      <feComposite in="SourceGraphic"/>
    </filter>
  </defs>
  <g id="Group_36" data-name="Group 36" transform="translate(534.434 -633.549)">
    <rect id="Rectangle_25" data-name="Rectangle 25" width="70" height="24" transform="translate(-534.434 652.549)" fill="none"/>
    <g id="Group_37" data-name="Group 37" transform="translate(2.537 -1.301)">
      <g transform="matrix(1, 0, 0, 1, -536.97, 634.85)" filter="url(#Path_111)">
        <path id="Path_111-2" data-name="Path 111" d="M-491.1,689.3h-22.739a4.061,4.061,0,0,1-4.06-4.06V643.415a4.061,4.061,0,0,1,4.06-4.061H-491.1a4.061,4.061,0,0,1,4.06,4.061v41.823a4.06,4.06,0,0,1-4.06,4.06Zm0,0" transform="translate(537.89 -633.35)" fill="#27a7df"/>
      </g>
      <rect id="Rectangle_19" data-name="Rectangle 19" width="30.86" height="38.142" transform="translate(-516.971 646.751)" fill="#f9f9f9"/>
      <path id="Path_112" data-name="Path 112" d="M-409.73,970.854a1.674,1.674,0,0,0-1.177.488,1.674,1.674,0,0,0-.488,1.177,1.674,1.674,0,0,0,.488,1.177,1.677,1.677,0,0,0,1.177.488,1.674,1.674,0,0,0,1.177-.488,1.674,1.674,0,0,0,.488-1.177,1.674,1.674,0,0,0-.488-1.177,1.674,1.674,0,0,0-1.177-.488Zm0,0" transform="translate(-91.714 -284.578)" fill="#f9f9f9"/>
      <path id="Path_113" data-name="Path 113" d="M-428.945,662.531a.8.8,0,0,0-.884-.677h-5.99a.8.8,0,0,0-.884.677.8.8,0,0,0,.884.677h5.99a.8.8,0,0,0,.884-.677Zm0,0" transform="translate(-68.168 -18.868)" fill="#f9f9f9"/>
      <g id="Group_35" data-name="Group 35" transform="translate(-510.992 655.762)">
        <rect id="Rectangle_20" data-name="Rectangle 20" width="2.173" height="8.359" transform="translate(2.024 8.808)" fill="#ffd531"/>
        <rect id="Rectangle_21" data-name="Rectangle 21" width="2.173" height="8.359" transform="translate(8.364 8.808)" fill="#ffd531"/>
        <rect id="Rectangle_22" data-name="Rectangle 22" width="2.173" height="8.359" transform="translate(14.704 8.808)" fill="#ffd531"/>
        <rect id="Rectangle_23" data-name="Rectangle 23" width="18.901" height="2.864" rx="1.432" transform="translate(0 17.166)" fill="#e5e5e5"/>
        <path id="Path_114" data-name="Path 114" d="M-462.428,798.3h18.9v2.347a.517.517,0,0,1-.517.517h-17.867a.517.517,0,0,1-.517-.517Z" transform="translate(462.428 -792.359)" fill="#e5e5e5"/>
        <path id="Path_115" data-name="Path 115" d="M-462.428,767.433l8.717-5.725a1.337,1.337,0,0,1,1.467,0l8.717,5.725Zm0,0" transform="translate(462.428 -761.49)" fill="#ffd531"/>
        <path id="Path_116" data-name="Path 116" d="M-408.852,778.035a.959.959,0,0,0,.674-.28.961.961,0,0,0,.28-.674.959.959,0,0,0-.28-.674.959.959,0,0,0-.674-.28.959.959,0,0,0-.675.28.959.959,0,0,0-.28.674.959.959,0,0,0,.28.674.959.959,0,0,0,.675.28Zm0,0" transform="translate(418.302 -773.763)" fill="#f9f9f9"/>
      </g>
    </g>
  </g>
</svg>
