<svg xmlns="http://www.w3.org/2000/svg" xmlns:xlink="http://www.w3.org/1999/xlink" viewBox="0 0 25 18.54"><defs><style>.cls-1{fill:#110239;}.cls-2{fill:url(#linear-gradient);}.cls-3{fill:url(#linear-gradient-2);}.cls-4{fill:#fff;}.cls-5{fill:#d3e9ff;}.cls-6{fill:url(#linear-gradient-3);}.cls-7{fill:url(#linear-gradient-4);}.cls-8{fill:#9c9eb9;}.cls-9{fill:#d0d1de;}</style><linearGradient id="linear-gradient" x1="2.04" y1="7.01" x2="22.96" y2="7.01" gradientUnits="userSpaceOnUse"><stop offset="0" stop-color="#096"/><stop offset="1" stop-color="#096"/></linearGradient><linearGradient id="linear-gradient-2" x1="12.5" y1="-0.01" x2="12.5" y2="13.25" gradientUnits="userSpaceOnUse"><stop offset="0" stop-color="#2cc3ec"/><stop offset="0.21" stop-color="#38c4ed"/><stop offset="0.7" stop-color="#5e2e86"/><stop offset="1" stop-color="#5e2e86"/></linearGradient><linearGradient id="linear-gradient-3" x1="4.55" y1="3.71" x2="20.45" y2="3.71" xlink:href="#linear-gradient"/><linearGradient id="linear-gradient-4" x1="0" y1="16.44" x2="25" y2="16.44" xlink:href="#linear-gradient"/></defs><g id="Layer_2" data-name="Layer 2"><g id="Layer_12" data-name="Layer 12"><rect class="cls-1" x="3.71" y="12.26" width="17.58" height="2.58"/><rect class="cls-2" x="2.04" width="20.92" height="14.02" rx="1.08"/><rect class="cls-3" x="3" y="0.93" width="19" height="12.02"/><rect class="cls-4" x="4.55" y="2.89" width="15.9" height="10.06"/><rect class="cls-5" x="5.57" y="5.42" width="6.4" height="0.66"/><rect class="cls-5" x="5.57" y="6.68" width="6.4" height="0.66"/><rect class="cls-5" x="13.26" y="6.68" width="6.4" height="0.66"/><rect class="cls-5" x="5.57" y="7.94" width="6.4" height="0.66"/><rect class="cls-5" x="13.26" y="7.94" width="6.4" height="0.66"/><rect class="cls-5" x="13.26" y="9.2" width="6.4" height="0.66"/><rect class="cls-5" x="5.57" y="9.2" width="6.4" height="0.66"/><rect class="cls-5" x="5.57" y="10.46" width="6.4" height="0.66"/><rect class="cls-5" x="13.26" y="10.46" width="6.4" height="0.66"/><rect class="cls-5" x="5.57" y="11.72" width="6.4" height="0.66"/><rect class="cls-6" x="4.55" y="2.89" width="15.9" height="1.66"/><path class="cls-1" d="M0,17.77v.38c0,.21.23.39.52.39h24c.29,0,.52-.18.52-.39v-.38Z"/><path class="cls-7" d="M12.5,14.81H2.24A11,11,0,0,0,.1,17.36c-.21.46-.07.7.32.7H24.58c.39,0,.53-.24.32-.7a11,11,0,0,0-2.14-2.55Z"/><polygon class="cls-8" points="23.7 17.52 1.84 17.52 3.35 15.27 22.19 15.27 23.7 17.52"/><path class="cls-9" d="M23.44,17.12l-.05-.07H21.93l-.27-.54H23L23,16.44H21.62l-.27-.55h1.26l-.05-.07H21.32L21,15.27h-.13l.28.55H19.62l-.22-.55h-.12l.21.55H17.93l-.16-.55h-.13l.16.55H16.24l-.11-.55H16l.1.55H14.55l-.05-.55h-.13l.05.55H12.93v-.55h-.14v.55H11.26l0-.55h-.12l0,.55H9.57l.1-.55H9.54l-.1.55H7.87L8,15.27H7.91l-.17.55H6.18l.22-.55H6.27l-.22.55H4.49l.27-.55H4.63l-.27.55H3l0,.07H4.32l-.27.55H2.57l0,.07H4l-.28.54H2.15l0,.07H3.71l-.2.4h.15l.19-.4H5.53l-.15.4h.14l.15-.4H7.36l-.12.4h.15l.11-.4H9.18l-.07.4h.14l.07-.4H11l0,.4h.14l0-.4h1.64v.4h.14v-.4h1.6l0,.4h.14l0-.4h1.68l.07.4h.15l-.08-.4h1.69l.11.4h.14l-.11-.4H20l.15.4h.15l-.16-.4h1.68l.2.4h.14l-.2-.4ZM6.15,15.89H7.72l-.16.55H5.94Zm-1.7,0H6l-.21.55H4.19Zm1.11,1.16H3.88l.27-.54H5.78Zm1.82,0H5.7l.21-.54H7.54Zm1.82,0H7.52l.16-.54H9.3Zm.12-.61H7.7l.15-.55H9.42Zm1.69.61H9.34l.1-.54h1.62Zm.06-.61H9.45l.1-.55h1.57Zm1.72.61H11.15l0-.54h1.59Zm0-.61H11.21l0-.55h1.54Zm.14-.55h1.49l.05.55H12.93Zm0,1.16v-.54h1.54l0,.54Zm8.29-1.16.27.55H19.87l-.22-.55Zm-1.7,0,.21.55H18.11L18,15.89Zm-5,0h1.57l.1.55H14.6Zm.11,1.16-.05-.54h1.63l.1.54Zm1.59-1.16h1.57l.16.55H16.36Zm.23,1.16-.11-.54H18l.16.54Zm1.82,0-.17-.54h1.63l.21.54Zm1.81,0-.21-.54h1.62l.27.54Z"/><path class="cls-1" d="M12.5,18.06H11.44a.23.23,0,0,0,.05.15.11.11,0,0,0,.08,0h1.86a.11.11,0,0,0,.08,0,.23.23,0,0,0,.05-.15Z"/><path class="cls-4" d="M5.45,3.37a.35.35,0,1,0,.34.34A.34.34,0,0,0,5.45,3.37Z"/><path class="cls-4" d="M6.59,3.37a.35.35,0,0,0,0,.69.35.35,0,1,0,0-.69Z"/><path class="cls-4" d="M7.74,3.37a.35.35,0,1,0,.34.34A.34.34,0,0,0,7.74,3.37Z"/><path class="cls-4" d="M19.54,3.37a.35.35,0,1,0,.34.34A.34.34,0,0,0,19.54,3.37Z"/></g></g></svg>